<svg width="50" height="50.000000" viewBox="0 0 24 24" fill="#fff" xmlns="http://www.w3.org/2000/svg" xmlns:xlink="http://www.w3.org/1999/xlink">
              <path id="" d="M4.5 12C4.5 7.85791 7.85791 4.5 12 4.5C16.1421 4.5 19.5 7.85791 19.5 12C19.5 16.1421 16.1421 19.5 12 19.5C9.9292 19.5 10.499 18.75 5.24902 18.75C5.24902 14.25 4.5 14.0713 4.5 12ZM8.25049 10.75C7.56006 10.75 7.00049 11.3096 7.00049 12C7.00049 12.6904 7.56006 13.25 8.25049 13.25C8.94092 13.25 9.50049 12.6904 9.50049 12C9.50049 11.3096 8.94092 10.75 8.25049 10.75ZM10.75 12C10.75 11.3096 11.3096 10.75 12 10.75C12.6904 10.75 13.25 11.3096 13.25 12C13.25 12.6904 12.6904 13.25 12 13.25C11.3096 13.25 10.75 12.6904 10.75 12ZM15.7505 10.75C15.0601 10.75 14.5005 11.3096 14.5005 12C14.5005 12.6904 15.0601 13.25 15.7505 13.25C16.4409 13.25 17.0005 12.6904 17.0005 12C17.0005 11.3096 16.4409 10.75 15.7505 10.75Z" clip-rule="evenodd" fill-rule="evenodd" fill-opacity="1.000000"></path>
            </svg>