<svg width="30.000000" height="30.000000" viewBox="0 0 24 24" fill="none" xmlns="http://www.w3.org/2000/svg" xmlns:xlink="http://www.w3.org/1999/xlink">
    <desc>
            Created with Pixso.
    </desc>
    <defs>
        <clipPath id="clip77_6007">
            <rect id="whatsapp" width="24.000000" height="24.000000" fill="white"/>
        </clipPath>
        <linearGradient id="paint_linear_77_6015_0" x1="17.000029" y1="5.500003" x2="6.000031" y2="18.000004" gradientUnits="userSpaceOnUse">
            <stop stop-color="#55CF68"/>
            <stop offset="0.973958" stop-color="#2CB43C"/>
        </linearGradient>
    </defs>
    <g clip-path="url(#clip77_6007)">
        <path  d="M2.43402 21.6515L3.78102 16.734C2.95002 15.295 2.51302 13.662 2.51352 11.9895C2.51602 6.757 6.77402 2.5 12.007 2.5C14.5465 2.501 16.9295 3.4895 18.722 5.283C20.514 7.077 21.501 9.461 21.5 11.997C21.498 17.2295 17.239 21.487 12.007 21.487C10.4185 21.4865 8.85302 21.088 7.46652 20.3315L2.43402 21.6515Z" fill-rule="evenodd" fill="#FFFFFF"/>
        <path d="" fill-rule="nonzero" fill="#CFD8DC" fill-opacity="1.000000"/>
        <path d="M12.007 1.99939C6.49899 1.99939 2.01598 6.48039 2.01348 11.9889C2.01299 13.6724 2.43798 15.3314 3.24398 16.7999L1.95148 21.5194C1.90448 21.6919 1.95248 21.8759 2.07848 22.0029C2.17348 22.0989 2.30198 22.1514 2.43398 22.1514C2.47649 22.1514 2.51898 22.1459 2.56098 22.1349L7.40448 20.8649C8.81848 21.5989 10.4035 21.9864 12.003 21.9869C14.5388 21.9869 16.8569 21.0384 18.621 19.4777L18.6295 19.4778L19.181 19.4778L19.181 20.0293C19.181 20.2029 19.2179 20.3559 19.2917 20.4884C19.321 20.5318 19.3909 20.6317 19.4286 20.6694C19.4664 20.7071 19.5069 20.7406 19.5502 20.7699C19.6827 20.8437 19.8952 20.9171 20.0688 20.9171C20.2424 20.9171 20.3955 20.8802 20.528 20.8064C20.5714 20.7771 20.6713 20.7071 20.709 20.6694C20.7467 20.6317 20.7803 20.5911 20.8096 20.5476C20.8834 20.4151 20.9567 20.2029 20.9567 20.0293L20.9567 19.4778L21.5082 19.4778C21.6818 19.4778 21.8349 19.4409 21.9674 19.367C22.0108 19.3377 22.1106 19.2678 22.1484 19.2301C22.1861 19.1923 22.2196 19.1518 22.2489 19.1084C22.3227 18.9759 22.3961 18.7635 22.3961 18.5899C22.3961 18.4163 22.3592 18.2632 22.2854 18.1307C22.256 18.0873 22.1861 17.9875 22.1484 17.9497C22.1106 17.912 22.07 17.8784 22.0266 17.8491C21.8941 17.7753 21.6818 17.702 21.5082 17.702L20.9567 17.702L20.9567 17.1505Q20.9567 16.8901 20.846 16.6913C20.8426 16.6863 20.8386 16.6805 20.8343 16.6741C21.5778 15.278 21.9997 13.6857 22.0005 11.9969C22.0015 9.32739 20.963 6.81739 19.0765 4.92939C17.189 3.04089 14.6785 2.00039 12.007 1.99939ZM20.4431 16.3429C21.1178 15.0399 21.4994 13.5618 21.5 11.9964C21.501 9.46039 20.514 7.07639 18.722 5.28239C16.9295 3.48889 14.5465 2.50039 12.007 2.49939C6.77399 2.49939 2.51598 6.75639 2.51348 11.9889C2.51299 13.6614 2.94998 15.2944 3.78098 16.7334L2.43398 21.6509L7.46648 20.3309C8.85298 21.0874 10.4185 21.4859 12.007 21.4864C14.3072 21.4864 16.4193 20.6635 18.0643 19.2966C18.0382 19.2761 18.0132 19.2539 17.9893 19.2301C17.9515 19.1923 17.8816 19.0925 17.8523 19.049C17.7785 18.9166 17.7416 18.7635 17.7416 18.5899C17.7416 18.4163 17.8149 18.2039 17.8887 18.0715C17.918 18.028 17.9515 17.9875 17.9893 17.9497C18.027 17.912 18.1269 17.842 18.1703 17.8127C18.3028 17.7389 18.4558 17.702 18.6295 17.702L19.181 17.702L19.181 17.1505C19.181 16.9769 19.2179 16.8238 19.2917 16.6913C19.321 16.6479 19.3909 16.5481 19.4286 16.5103C19.4664 16.4726 19.5662 16.4027 19.6097 16.3734C19.7422 16.2995 19.8952 16.2626 20.0688 16.2626C20.1881 16.2626 20.3257 16.2973 20.4431 16.3429ZM19.0475 19.0778C19.6247 18.5042 20.1324 17.861 20.5567 17.1618L20.5567 18.102L21.5082 18.102C21.6225 18.102 21.7177 18.1263 21.7938 18.1748C21.8161 18.197 21.907 18.2787 21.9233 18.3043Q21.9961 18.4185 21.9961 18.5899C21.9961 18.7042 21.9718 18.7994 21.9233 18.8755C21.9011 18.8977 21.8194 18.9887 21.7938 19.005C21.7177 19.0535 21.6225 19.0778 21.5082 19.0778L20.5567 19.0778L20.5567 20.0293C20.5567 20.1435 20.5324 20.2387 20.4839 20.3149C20.4617 20.3371 20.38 20.4281 20.3545 20.4444C20.2783 20.4929 20.1831 20.5171 20.0688 20.5171C19.9546 20.5171 19.8593 20.4929 19.7832 20.4444C19.761 20.4222 19.67 20.3405 19.6537 20.3149C19.6052 20.2387 19.5809 20.1435 19.5809 20.0293L19.5809 19.0778L19.0475 19.0778ZM18.3778 19.0244C18.3661 19.0184 18.3548 19.012 18.3438 19.005C18.3216 18.9828 18.2307 18.9011 18.2143 18.8755Q18.1416 18.7613 18.1416 18.5899C18.1416 18.4756 18.1658 18.3804 18.2143 18.3043C18.2366 18.282 18.3182 18.1911 18.3438 18.1748C18.42 18.1263 18.5152 18.102 18.6295 18.102L19.2672 18.102C18.9917 18.429 18.6944 18.7372 18.3778 19.0244ZM19.5809 17.7093L19.5809 17.1505C19.5809 17.0362 19.6052 16.941 19.6537 16.8649C19.6759 16.8427 19.7576 16.7517 19.7832 16.7354Q19.8974 16.6626 20.0688 16.6626C20.1377 16.6626 20.1996 16.6714 20.2546 16.6891C20.0517 17.0441 19.8265 17.3848 19.5809 17.7093Z" clip-rule="evenodd" fill-rule="evenodd" fill="#CFD8DC" fill-opacity="1.000000"/>
        <path d="M2.25648 21.8275C2.30399 21.8755 2.36799 21.9015 2.43398 21.9015C2.45548 21.9015 2.47649 21.899 2.49748 21.893L7.43498 20.5985C8.83498 21.343 10.4125 21.7365 12.007 21.737C17.377 21.737 21.748 17.3675 21.75 11.997C21.751 9.395 20.7385 6.948 18.899 5.1065C17.0595 3.2655 14.612 2.251 12.007 2.25C6.63648 2.25 2.26598 6.619 2.26398 11.99C2.26299 13.665 2.69449 15.315 3.51249 16.768L2.19299 21.586C2.16949 21.6715 2.19398 21.764 2.25648 21.8275Z" clip-rule="evenodd" fill-rule="evenodd" fill="#FFFFFF" fill-opacity="1.000000"/>
        <path  d="M17.588 6.416C16.098 4.925 14.1175 4.1035 12.0095 4.103C7.65753 4.103 4.11803 7.641 4.11603 11.99C4.11552 13.4805 4.53253 14.9315 5.32253 16.188L5.51053 16.4865L4.71303 19.397L7.69953 18.614L7.98803 18.785C9.19903 19.504 10.588 19.884 12.004 19.8845C16.353 19.8845 19.8955 16.346 19.897 11.9965C19.8975 9.889 19.078 7.907 17.588 6.416Z" fill-rule="evenodd" fill="url(#paint_linear_77_6015_0)"/>
        <path  d="M9.634 8.0225C9.4565 7.6275 9.26949 7.6195 9.1 7.6125C8.96149 7.6065 8.8035 7.607 8.64549 7.607C8.4875 7.607 8.23049 7.6665 8.01299 7.904C7.79549 8.1415 7.1825 8.715 7.1825 9.882C7.1825 11.049 8.03249 12.177 8.15099 12.335C8.26949 12.493 9.79199 14.9645 12.203 15.9155C14.2065 16.7055 14.6145 16.5485 15.0495 16.509C15.4845 16.4695 16.453 15.9355 16.6505 15.3815C16.848 14.8275 16.848 14.353 16.789 14.254C16.7295 14.155 16.5715 14.096 16.3345 13.977C16.0975 13.858 14.931 13.2845 14.7135 13.2055C14.496 13.1265 14.338 13.087 14.1795 13.3245C14.0215 13.5615 13.567 14.096 13.4285 14.254C13.29 14.4125 13.1515 14.4325 12.9145 14.3135C12.6775 14.1945 11.9135 13.9445 11.007 13.1365C10.302 12.508 9.826 11.7315 9.68749 11.494C9.549 11.257 9.67249 11.1285 9.7915 11.01C9.89799 10.9035 10.0285 10.733 10.1475 10.5945C10.266 10.456 10.3055 10.357 10.3845 10.199C10.4635 10.0405 10.424 9.902 10.3645 9.7835C10.306 9.6645 9.84499 8.4915 9.634 8.0225Z" fill-rule="evenodd" fill="#FFFFFF"/>
        <path d="M19.4851 16.7574C19.4157 16.8663 19.381 16.9974 19.381 17.1505L19.381 17.902L18.6295 17.902C18.4763 17.902 18.3453 17.9367 18.2364 18.0061C18.1985 18.0303 18.1633 18.0586 18.1307 18.0911C18.0982 18.1237 18.0698 18.1589 18.0457 18.1968C17.9763 18.3057 17.9416 18.4368 17.9416 18.5899C17.9416 18.743 17.9763 18.8741 18.0457 18.983C18.0698 19.0209 18.0982 19.0561 18.1307 19.0886C18.1633 19.1212 18.1985 19.1495 18.2364 19.1737C18.3453 19.2431 18.4763 19.2778 18.6295 19.2778L19.381 19.2778L19.381 20.0293C19.381 20.1824 19.4157 20.3134 19.4851 20.4224C19.5092 20.4603 19.5376 20.4955 19.5701 20.528C19.6026 20.5606 19.6379 20.5889 19.6758 20.613C19.7847 20.6824 19.9157 20.7171 20.0688 20.7171C20.222 20.7171 20.353 20.6824 20.4619 20.613C20.4998 20.5889 20.535 20.5606 20.5676 20.528C20.6001 20.4955 20.6285 20.4603 20.6526 20.4224C20.722 20.3134 20.7567 20.1824 20.7567 20.0293L20.7567 19.2778L21.5082 19.2778C21.6614 19.2778 21.7924 19.2431 21.9013 19.1737C21.9392 19.1495 21.9744 19.1212 22.007 19.0886C22.0395 19.0561 22.0679 19.0209 22.092 18.983C22.1614 18.8741 22.1961 18.743 22.1961 18.5899C22.1961 18.4368 22.1614 18.3057 22.092 18.1968C22.0679 18.1589 22.0395 18.1237 22.007 18.0911C21.9744 18.0586 21.9392 18.0303 21.9013 18.0061C21.7924 17.9367 21.6614 17.902 21.5082 17.902L20.7567 17.902L20.7567 17.1505C20.7567 16.9974 20.722 16.8663 20.6526 16.7574C20.6285 16.7195 20.6001 16.6843 20.5676 16.6518C20.535 16.6192 20.4998 16.5909 20.4619 16.5667C20.353 16.4973 20.222 16.4626 20.0688 16.4626C19.9157 16.4626 19.7847 16.4973 19.6758 16.5667C19.6378 16.5909 19.6026 16.6192 19.5701 16.6518C19.5376 16.6843 19.5092 16.7195 19.4851 16.7574Z" fill-rule="evenodd" fill="#FFFFFF"/>
        <path  d="M18.6359 18.2122L21.5147 18.2122C21.7066 18.2122 21.8453 18.398 21.8453 18.5899C21.8453 18.7818 21.717 18.9715 21.5251 18.9715L18.6463 18.9715C18.4544 18.9715 18.2817 18.7818 18.2817 18.5899C18.2817 18.398 18.444 18.2122 18.6359 18.2122ZM19.6707 20.0147L19.6707 17.1359C19.6707 16.944 19.8769 16.7945 20.0688 16.7945C20.2607 16.7945 20.4379 16.9484 20.4379 17.1403L20.4379 20.0191C20.4379 20.211 20.2607 20.364 20.0688 20.364C19.8769 20.364 19.6707 20.2066 19.6707 20.0147Z" fill-rule="nonzero" fill="#40C351"/>
    </g>
</svg>
